<svg width="309" height="101" viewBox="0 0 309 101" fill="none" xmlns="http://www.w3.org/2000/svg">
<g clip-path="url(#clip0_1_30)">
<mask id="mask0_1_30" style="mask-type:luminance" maskUnits="userSpaceOnUse" x="31" y="27" width="69" height="61">
<path d="M31.3528 27.7009H99.7674V87.8279H31.3528V27.7009Z" fill="white"/>
</mask>
<g mask="url(#mask0_1_30)">
<path d="M99.7674 50.4979C99.7674 41.9224 96.8694 34.0251 92.0001 27.7285C94.1213 31.1035 95.6827 34.9122 96.5264 39.0521C100.02 56.2386 89.8908 73.0307 73.5481 78.2312C87.3201 71.6705 95.4027 56.3726 92.2249 40.7514C91.9962 39.612 91.7084 38.4962 91.3693 37.408C91.527 38.7958 91.6059 40.2034 91.6059 41.6267C91.6059 62.2 74.932 78.8778 54.3587 78.8778C45.6925 78.8778 37.7163 75.9168 31.3843 70.949C38.0436 81.0661 49.5012 87.7451 62.5202 87.7451C83.0895 87.7451 99.7674 71.0672 99.7674 50.4979Z" fill="#0D1036"/>
</g>
<mask id="mask1_1_30" style="mask-type:luminance" maskUnits="userSpaceOnUse" x="13" y="32" width="61" height="69">
<path d="M13.1648 32.2825H73.2918V100.697H13.1648V32.2825Z" fill="white"/>
</mask>
<g mask="url(#mask1_1_30)">
<path d="M50.4514 100.697C59.023 100.697 66.9242 97.7991 73.2169 92.9298C69.8419 95.051 66.0332 96.6124 61.8933 97.4561C44.7068 100.949 27.9186 90.8205 22.7142 74.4817C29.2749 88.2498 44.5728 96.3324 60.194 93.1546C61.3374 92.9259 62.4492 92.6381 63.5374 92.299C62.1535 92.4567 60.746 92.5355 59.3187 92.5355C38.7454 92.5355 22.0676 75.8617 22.0676 55.2884C22.0676 46.6222 25.0325 38.646 29.9964 32.314C19.8793 38.9772 13.2003 50.4309 13.2003 63.4499C13.2003 84.0192 29.8782 100.697 50.4514 100.697Z" fill="#00AEEF"/>
</g>
<mask id="mask2_1_30" style="mask-type:luminance" maskUnits="userSpaceOnUse" x="0" y="13" width="70" height="62">
<path d="M0 13.6215H69.1401V74.1821H0V13.6215Z" fill="white"/>
</mask>
<g mask="url(#mask2_1_30)">
<path d="M0.248413 51.3773C0.248413 59.9528 3.14634 67.8541 8.01958 74.1467C5.89443 70.7717 4.3331 66.963 3.48935 62.8231C-0.00392252 45.6406 10.125 28.8445 26.4677 23.644C12.6957 30.2047 4.61304 45.5026 7.7909 61.1277C8.02352 62.2632 8.3074 63.379 8.64647 64.4672C8.48876 63.0833 8.40991 61.6758 8.40991 60.2485C8.40991 39.6752 25.0877 23.0013 45.6571 23.0013C54.3272 23.0013 62.3034 25.9623 68.6315 30.9262C61.9722 20.8091 50.5145 14.1301 37.4995 14.1301C16.9263 14.1301 0.248413 30.808 0.248413 51.3773Z" fill="#0D1036"/>
</g>
<mask id="mask3_1_30" style="mask-type:luminance" maskUnits="userSpaceOnUse" x="26" y="0" width="62" height="71">
<path d="M26.7477 0.929688H87.3083V70.1447H26.7477V0.929688Z" fill="white"/>
</mask>
<g mask="url(#mask3_1_30)">
<path d="M49.5683 1.1781C40.9929 1.1781 33.0955 4.07602 26.799 8.94926C30.1739 6.82412 33.9826 5.26279 38.1225 4.41904C55.309 0.925765 72.1012 11.0547 77.3017 27.3974C70.7409 13.6254 55.443 5.54273 39.8219 8.72058C38.6824 8.95321 37.5666 9.23708 36.4784 9.57616C37.8663 9.41845 39.2738 9.3396 40.6971 9.3396C61.2704 9.3396 77.9483 26.0135 77.9483 46.5868C77.9483 55.2569 74.9873 63.2331 70.0194 69.5612C80.1365 62.9019 86.8155 51.4442 86.8155 38.4292C86.8155 17.8559 70.1377 1.1781 49.5683 1.1781Z" fill="#00AEEF"/>
</g>
<path d="M110.702 53.6806H114.341V37.7677L127.127 53.6806H129.868V31.136H126.26V47.1751L113.47 31.136H110.702V53.6806Z" fill="#367299"/>
<path d="M137.144 53.6806H153.794V50.1361H140.752V44.084H153.183V40.7326H140.752V34.645H153.7V31.136H137.144V53.6806Z" fill="#367299"/>
<path d="M157.5 53.6806H161.589L167.74 44.7582L173.859 53.6806H177.952V53.5821L169.995 42.2467L177.628 31.2937V31.136H173.666L167.74 39.8613L161.782 31.136H157.82V31.2937L165.421 42.2467L157.5 53.5821V53.6806Z" fill="#367299"/>
<path d="M180.142 53.6806H183.975L186.1 48.9454H198.307L200.463 53.6806H204.296L194.182 31.136H190.255L180.142 53.6806ZM187.452 45.6611L192.219 34.9368L196.986 45.6611H187.452Z" fill="#367299"/>
<path d="M215.923 53.7437H219.692L229.033 31.136H225.007L217.792 49.3633L210.608 31.136H206.551L215.923 53.7437Z" fill="#367299"/>
<path d="M233.863 53.6806H237.439V31.136H233.863V53.6806Z" fill="#367299"/>
<path d="M244.717 53.6806H253.253C261.079 53.6806 264.557 48.078 264.557 42.4399C264.557 36.7702 261.048 31.136 253.253 31.136H244.717V53.6806ZM248.293 50.2031V34.582H253.253C258.662 34.582 260.981 38.576 260.981 42.4083C260.981 46.3038 258.662 50.2031 253.253 50.2031H248.293Z" fill="#367299"/>
<path d="M267.94 53.6806H271.772L273.897 48.9454H286.104L288.261 53.6806H292.093L281.98 31.136H278.053L267.94 53.6806ZM275.25 45.6611L280.016 34.9368L284.783 45.6611H275.25Z" fill="#367299"/>
<path d="M300.369 49.107H303.689V44.084H308.68V40.9889H303.689V36.0289H300.369V40.9889H295.409V44.084H300.369V49.107Z" fill="#367299"/>
<mask id="mask4_1_30" style="mask-type:luminance" maskUnits="userSpaceOnUse" x="40" y="36" width="27" height="32">
<path d="M40.0504 36.9468H66.7468V67.6766H40.0504V36.9468Z" fill="white"/>
</mask>
<g mask="url(#mask4_1_30)">
<path d="M60.8208 44.8125C62.7567 40.5149 59.2753 36.9664 59.2753 36.9664C63.8725 43.9964 53.9841 51.2589 45.5624 56.1913C42.1125 58.21 40.6576 60.9896 40.078 63.3434C40.078 63.3434 41.5802 59.6333 48.3814 56.1913C55.3759 52.6546 58.6129 51.3417 60.2018 46.1373C60.2018 46.1373 60.1742 51.251 53.9999 54.3382C53.2428 54.7167 52.5016 55.0518 51.8037 55.4106C44.1193 59.3691 43.8867 62.6377 43.8867 68.0117H55.8806V56.8103H67.0819V44.8125H60.8208Z" fill="#0D1036"/>
</g>
<mask id="mask5_1_30" style="mask-type:luminance" maskUnits="userSpaceOnUse" x="32" y="33" width="29" height="33">
<path d="M32.6815 33.6112H60.056V65.098H32.6815V33.6112Z" fill="white"/>
</mask>
<g mask="url(#mask5_1_30)">
<path d="M38.9466 56.8104C37.0067 61.108 40.4921 64.6564 40.4921 64.6564C35.8909 57.6265 45.7793 50.364 54.205 45.4316C57.651 43.4129 59.1058 40.6372 59.6894 38.2794C59.6894 38.2794 58.1872 41.9896 51.382 45.4316C44.3915 48.9682 41.1505 50.2812 39.5616 55.4856C39.5616 55.4856 39.5932 50.3718 45.7675 47.2847C46.5206 46.9062 47.2658 46.571 47.9597 46.2122C55.6441 42.2577 55.8807 38.9852 55.8807 33.6112H43.8868V44.8126H32.6815V56.8104H38.9466Z" fill="#00AEEF"/>
</g>
<path d="M116.133 70.3629H116.878V64.9179H118.971V64.2358H114.035V64.9179H116.133V70.3629Z" fill="#51ADE5"/>
<path d="M121.69 70.3629H122.463V67.599H125.964V70.3629H126.717V64.2358H125.964V66.8893H122.463V64.2358H121.69V70.3629Z" fill="#51ADE5"/>
<path d="M130.091 70.3629H134.538V69.6374H130.856V67.5635H134.251V66.8538H130.856V64.9376H134.4V64.2358H130.091V70.3629Z" fill="#51ADE5"/>
<path d="M141.547 70.3629H142.32V67.599H145.821V70.3629H146.574V64.2358H145.821V66.8893H142.32V64.2358H141.547V70.3629Z" fill="#51ADE5"/>
<path d="M149.948 70.3629H154.395V69.6374H150.713V67.5635H154.107V66.8538H150.713V64.9376H154.257V64.2358H149.948V70.3629Z" fill="#51ADE5"/>
<path d="M156.742 70.3629H157.573L158.177 69.0145H161.678L162.273 70.3629H163.093L160.337 64.2358H159.498L156.742 70.3629ZM158.472 68.3048L159.915 64.9968L161.37 68.3048H158.472Z" fill="#51ADE5"/>
<path d="M165.805 70.3629H169.909V69.6532H166.578V64.2358H165.805V70.3629Z" fill="#51ADE5"/>
<path d="M174.066 70.3629H174.811V64.9179H176.905V64.2358H171.969V64.9179H174.066V70.3629Z" fill="#51ADE5"/>
<path d="M179.624 70.3629H180.396V67.599H183.897V70.3629H184.651V64.2358H183.897V66.8893H180.396V64.2358H179.624V70.3629Z" fill="#51ADE5"/>
<path d="M190.844 70.4851C191.695 70.4851 192.488 70.1973 193.131 69.5822L192.594 69.0579C192.129 69.5152 191.467 69.7676 190.844 69.7676C189.192 69.7676 188.439 68.569 188.411 67.327C188.411 66.0574 189.2 64.8509 190.844 64.8509C191.467 64.8509 192.086 65.0678 192.567 65.5212L193.095 65.0402C192.464 64.4212 191.66 64.1136 190.844 64.1136C188.719 64.1136 187.642 65.6789 187.642 67.2994C187.642 68.9356 188.663 70.4851 190.844 70.4851Z" fill="#51ADE5"/>
<path d="M195.326 70.3629H196.158L196.761 69.0145H200.262L200.857 70.3629H201.678L198.922 64.2358H198.082L195.326 70.3629ZM197.057 68.3048L198.5 64.9968L199.955 68.3048H197.057Z" fill="#51ADE5"/>
<path d="M204.389 70.3629H205.162V68.147H206.641L208.549 70.3629H209.511L207.488 68.0958C208.766 68.0012 209.247 67.114 209.247 66.1954C209.247 65.1979 208.549 64.2358 207.173 64.2358H204.389V70.3629ZM205.162 67.4728V64.9179H207.173C208.068 64.9179 208.494 65.6119 208.494 66.2151C208.494 66.9051 208.06 67.4728 207.137 67.4728H205.162Z" fill="#51ADE5"/>
<path d="M212.379 70.3629H216.827V69.6374H213.144V67.5635H216.539V66.8538H213.144V64.9376H216.689V64.2358H212.379V70.3629Z" fill="#51ADE5"/>
<path d="M223.835 70.3629H226.067C228.223 70.3629 229.15 68.7858 229.15 67.2284C229.15 65.7262 228.152 64.2358 226.067 64.2358H223.835V70.3629ZM224.608 69.6098V64.9613H226.067C227.644 64.9613 228.397 66.085 228.397 67.2205C228.397 68.3954 227.707 69.6098 226.067 69.6098H224.608Z" fill="#51ADE5"/>
<path d="M231.486 70.3629H232.318L232.921 69.0145H236.423L237.018 70.3629H237.838L235.082 64.2358H234.242L231.486 70.3629ZM233.217 68.3048L234.66 64.9968L236.115 68.3048H233.217Z" fill="#51ADE5"/>
<path d="M241.985 70.3629H242.73V64.9179H244.824V64.2358H239.887V64.9179H241.985V70.3629Z" fill="#51ADE5"/>
<path d="M246.88 70.3629H247.712L248.315 69.0145H251.816L252.411 70.3629H253.231L250.475 64.2358H249.636L246.88 70.3629ZM248.611 68.3048L250.054 64.9968L251.508 68.3048H248.611Z" fill="#51ADE5"/>
<path d="M262.77 70.4851C263.759 70.4851 264.52 70.1185 265.143 69.4521V67.0273H262.545V67.6937H264.453V69.1446C263.937 69.602 263.365 69.7754 262.782 69.7754C261.118 69.7754 260.329 68.6044 260.329 67.3625C260.329 66.0219 261.197 64.8233 262.762 64.8233C263.385 64.8233 264.083 65.0875 264.576 65.5488L265.021 65.0402C264.382 64.4212 263.578 64.1136 262.762 64.1136C260.759 64.1136 259.576 65.5212 259.576 67.3625C259.576 69.0066 260.582 70.4851 262.77 70.4851Z" fill="#51ADE5"/>
<path d="M268.213 70.3629H268.986V68.147H270.464L272.372 70.3629H273.334L271.312 68.0958C272.589 68.0012 273.07 67.114 273.07 66.1954C273.07 65.1979 272.372 64.2358 270.996 64.2358H268.213V70.3629ZM268.986 67.4728V64.9179H270.996C271.891 64.9179 272.317 65.6119 272.317 66.2151C272.317 66.9051 271.883 67.4728 270.961 67.4728H268.986Z" fill="#51ADE5"/>
<path d="M276.203 70.3629H276.975V64.2358H276.203V70.3629Z" fill="#51ADE5"/>
<path d="M280.351 70.3629H282.583C284.739 70.3629 285.666 68.7858 285.666 67.2284C285.666 65.7262 284.668 64.2358 282.583 64.2358H280.351V70.3629ZM281.124 69.6098V64.9613H282.583C284.16 64.9613 284.913 66.085 284.913 67.2205C284.913 68.3954 284.223 69.6098 282.583 69.6098H281.124Z" fill="#51ADE5"/>
</g>
<defs>
<clipPath id="clip0_1_30">
<rect width="308.859" height="100" fill="white" transform="translate(0 0.929688)"/>
</clipPath>
</defs>
</svg>
